<?xml version="1.0" encoding="utf-8"?>
<!-- Generator: Adobe Illustrator 25.0.0, SVG Export Plug-In . SVG Version: 6.00 Build 0)  -->
<svg version="1.1" id="Layer_1" xmlns="http://www.w3.org/2000/svg" xmlns:xlink="http://www.w3.org/1999/xlink" x="0px" y="0px"
	 viewBox="0 0 1920 1080" style="enable-background:new 0 0 1920 1080;" xml:space="preserve">
<style type="text/css">
	.st0{clip-path:url(#SVGID_2_);}
	.st1{fill:#A5FF00;}
	.st2{fill:#FFFFFF;}
	.st3{clip-path:url(#SVGID_2_);fill:#A5FF00;}
	.st4{fill:#323232;}
</style>
<g>
	<defs>
		<rect id="SVGID_1_" width="1920" height="1080"/>
	</defs>
	<clipPath id="SVGID_2_">
		<use xlink:href="#SVGID_1_"  style="overflow:visible;"/>
	</clipPath>
	<rect class="st0" width="1920" height="1080"/>
	<g class="st0">
		<g>
			<path class="st1" d="M1470.05,492.39c-1.32-14.53-8.48-26.62-20.17-34.04c-5.84-3.71-12.02-6.08-18.3-7.03
				c-16.35-2.47-30.5,5.02-39.33,11.59l-1.67-1.71c-2.25-2.31-5.25-3.84-8.45-4.33l-37.9-5.74l-37.9-5.74
				c-3.18-0.48-6.5,0.1-9.35,1.63l-1.99,1.09c-6.5-8.86-17.78-20.17-34.11-22.64c-6.28-0.95-12.88-0.52-19.56,1.3
				c-13.34,3.63-23.75,13.02-29.3,26.47c-5.33,12.91-5.46,28.09-0.57,40.29c-3.38,2.31-5.7,5.99-6.31,10.08l-9.34,61.69
				c-0.47,3.08,0.03,6.18,1.44,8.98c1.29,2.55,32.63,62.7,115.58,79.49c0.28,0.06,0.5,0.1,0.72,0.13s0.46,0.07,0.68,0.08
				c84.26,8.52,132-39.66,133.99-41.71c2.18-2.25,3.57-5.07,4.04-8.15l9.33-61.67c0.61-4.04-0.5-8.18-2.98-11.38
				C1466.89,520.85,1471.3,506.32,1470.05,492.39z"/>
			<path d="M1453.23,533.97l-66.92-68.6c-1.36-1.39-3.15-2.32-5.07-2.61l-37.9-5.74l-37.9-5.74c-1.92-0.29-3.9,0.04-5.61,0.99
				l-84.22,45.73c-2.48,1.34-4.15,3.75-4.57,6.53l-9.34,61.69c-0.28,1.84,0.03,3.73,0.86,5.39c1.25,2.44,31.26,60.12,111.45,76.35
				c0.14,0.02,0.3,0.05,0.44,0.07s0.3,0.05,0.44,0.07c81.4,8.23,127.14-37.98,129.05-39.94c1.29-1.34,2.14-3.05,2.42-4.89
				l9.34-61.69C1456.09,538.79,1455.18,535.97,1453.23,533.97z"/>
			<path d="M1224.8,503.2l72.54-39.37c0,0-17.28-41.36-54.44-31.27C1211.08,441.18,1205.95,485.35,1224.8,503.2"/>
			<path d="M1443.07,536.24l-57.64-59.07c0,0,28.74-34.39,61.25-13.75C1474.53,481.06,1466.36,524.77,1443.07,536.24"/>
			<path d="M1453.23,533.97l-66.92-68.6c-1.36-1.39-3.15-2.32-5.07-2.61l-37.9-5.74l-37.9-5.74c-1.92-0.29-3.9,0.04-5.61,0.99
				l-84.22,45.73c-2.48,1.34-4.15,3.75-4.57,6.53l-9.34,61.69c-0.28,1.84,0.03,3.73,0.86,5.39c1.25,2.44,31.26,60.12,111.45,76.35
				c0.14,0.02,0.3,0.05,0.44,0.07s0.3,0.05,0.44,0.07c81.4,8.23,127.14-37.98,129.05-39.94c1.29-1.34,2.14-3.05,2.42-4.89
				l9.34-61.69C1456.09,538.79,1455.18,535.97,1453.23,533.97z"/>
			<path class="st2" d="M1379.9,471.63l-37.9-5.74l-37.9-5.74l-84.24,45.72l-9.34,61.69c0,0,28.38,56.06,105.23,71.62
				c78.01,7.88,121.71-37.27,121.71-37.27l9.34-61.69L1379.9,471.63z"/>
			<path d="M1286.85,568.94c0,0,5.86-18.84,17.89-23.28c12.03-4.44,6.49-23.02,2.36-26.15c-4.13-3.12-22.53-17.31-46.2,8.01
				c-23.67,25.34-23.52,43.43-11.28,56.66C1261.86,597.44,1281.5,589.97,1286.85,568.94"/>
			<path d="M1364.53,580.78c0,0-2.58-19.57-13.71-25.96c-11.11-6.41-2.52-23.78,2.08-26.17c4.6-2.37,25.14-13.26,44.19,15.69
				c19.07,28.96,15.86,46.77,1.57,57.75C1384.36,613.07,1366.27,602.41,1364.53,580.78"/>
			<g>
				<path d="M1318.01,624.42c-0.88-0.13-1.65-0.62-2.15-1.33l-20.49-25.66c-1.12-1.4-0.89-3.43,0.5-4.53
					c1.4-1.12,3.43-0.89,4.55,0.5l18.74,23.47L1344,600c1.48-1,3.49-0.62,4.49,0.86c1,1.48,0.62,3.49-0.86,4.47l-27.08,18.37
					C1319.85,624.29,1318.93,624.56,1318.01,624.42"/>
				<path d="M1294.06,620.79c-0.86-0.13-1.67-0.6-2.19-1.37c-1-1.48-0.62-3.49,0.86-4.49l27.08-18.37c1.36-1.12,3.66-0.8,4.69,0.63
					l20.49,25.66c1.12,1.4,0.89,3.43-0.5,4.55c-1.4,1.12-3.43,0.89-4.55-0.5l-18.76-23.47l-24.84,16.85
					C1295.65,620.74,1294.82,620.91,1294.06,620.79"/>
			</g>
			<path d="M1312.3,569.68c0,0,4.24-1.75,14.92-0.14c10.68,1.62,15.15,4.69,15.15,4.69s1.83,5.25-7.89,10.33
				c0,0-4.75,3.25-9.21,2.19C1320.83,585.69,1300.91,570.25,1312.3,569.68"/>
			<path d="M1224.8,503.2l72.54-39.37c0,0-17.28-41.36-54.44-31.27C1211.08,441.18,1205.95,485.35,1224.8,503.2"/>
			<path d="M1443.07,536.24l-57.64-59.07c0,0,28.74-34.39,61.25-13.75C1474.53,481.06,1466.36,524.77,1443.07,536.24"/>
		</g>
		<g>
			<path class="st2" d="M1448.68,487.4c-1.21,7.98-8.44,13.32-16.61,12.08c-8.08-1.22-13.58-8.48-12.37-16.46
				c1.18-7.82,8.57-13.11,16.66-11.89C1444.55,472.36,1449.86,479.57,1448.68,487.4z M1423.33,483.56
				c-0.95,6.26,2.94,11.97,9.3,12.93c6.18,0.94,11.5-3.36,12.43-9.54c0.95-6.28-2.84-12.04-9.11-12.98
				C1429.68,473,1424.27,477.38,1423.33,483.56z M1430.9,492.26l-3.26-0.49l2.13-14.09c1.32-0.07,3.16,0.05,5.49,0.4
				c2.66,0.4,3.8,1,4.74,1.78c0.69,0.72,1.12,1.93,0.91,3.29c-0.23,1.54-1.62,2.58-3.41,2.82l-0.03,0.18
				c1.3,0.73,1.91,1.86,2.06,3.83c0.1,2.2,0.23,3.1,0.51,3.68l-3.52-0.53c-0.34-0.58-0.41-1.9-0.6-3.61
				c-0.03-1.58-0.78-2.41-2.58-2.68l-1.54-0.23l-0.86,5.66L1430.9,492.26z M1432.18,484.29l1.54,0.23c1.8,0.27,3.35-0.11,3.57-1.57
				c0.19-1.28-0.62-2.28-2.68-2.6c-0.86-0.13-1.47-0.14-1.83-0.09C1432.79,480.27,1432.18,484.29,1432.18,484.29z"/>
		</g>
	</g>
	<polygon class="st3" points="1218.41,679.62 656.24,679.62 729.94,400.38 1275.1,400.38 	"/>
	<polygon class="st3" points="583.34,679.62 657.04,400.38 698.4,400.38 624.7,679.62 	"/>
	<polygon class="st3" points="508.48,679.62 582.19,400.38 623.54,400.38 549.84,679.62 	"/>
	<polygon class="st3" points="433.63,679.62 507.33,400.38 548.69,400.38 474.99,679.62 	"/>
	<polygon class="st3" points="358.78,679.62 432.48,400.38 473.84,400.38 400.14,679.62 	"/>
	<polygon class="st3" points="283.93,679.62 357.63,400.38 398.99,400.38 325.29,679.62 	"/>
	<polygon class="st3" points="209.08,679.62 282.78,400.38 324.14,400.38 250.44,679.62 	"/>
	<polygon class="st3" points="134.22,679.62 207.92,400.38 249.28,400.38 175.58,679.62 	"/>
	<polygon class="st3" points="59.37,679.62 133.07,400.38 174.43,400.38 100.73,679.62 	"/>
	<polygon class="st3" points="-15.48,679.62 58.22,400.38 99.58,400.38 25.88,679.62 	"/>
	<polygon class="st3" points="-90.33,679.62 -16.63,400.38 24.73,400.38 -48.97,679.62 	"/>
	<polygon class="st3" points="-165.18,679.62 -91.48,400.38 -50.12,400.38 -123.83,679.62 	"/>
	<g class="st0">
		<g>
			<path d="M818.36,452.7c0,3.84-0.8,7.41-2.41,10.69c-1.61,3.29-3.81,6.13-6.63,8.52c-2.81,2.39-6.17,4.27-10.06,5.64
				c-3.89,1.37-8.13,2.05-12.71,2.05H751.2V446.7h16.41v19.33h18.94c2.26,0,4.35-0.3,6.27-0.91c1.92-0.6,3.56-1.46,4.93-2.56
				c1.37-1.1,2.45-2.43,3.24-3.99c0.79-1.55,1.18-3.27,1.18-5.17c0-1.84-0.39-3.55-1.18-5.13c-0.79-1.58-1.89-2.93-3.31-4.06
				c-1.42-1.13-3.08-2.02-4.97-2.68c-1.89-0.66-3.95-0.99-6.16-0.99H751.2l10.42-13.73h24.94c4.63,0,8.89,0.63,12.78,1.89
				c3.89,1.26,7.25,3.04,10.06,5.33c2.81,2.29,5.01,5.02,6.59,8.21C817.57,445.43,818.36,448.91,818.36,452.7z"/>
			<path d="M843.22,479.61h-16.34V442.6h16.34V479.61z M828.38,431.86c0-1.89,0.66-3.35,1.97-4.38c1.31-1.03,2.89-1.54,4.74-1.54
				c1.89,0,3.5,0.51,4.81,1.54c1.31,1.03,1.97,2.49,1.97,4.38c0,1.84-0.66,3.26-1.97,4.26c-1.32,1-2.92,1.5-4.81,1.5
				c-1.84,0-3.42-0.5-4.74-1.5C829.04,435.13,828.38,433.71,828.38,431.86z"/>
			<path d="M920,479.61h-24.7l-15.94-13.89c-2.74-2.37-4.83-4.21-6.27-5.52c-1.45-1.31-2.62-2.42-3.51-3.31
				c0.05,1.21,0.1,2.46,0.16,3.75c0.05,1.29,0.08,2.56,0.08,3.83v15.15H853.4v-52.8h16.41v12.23c0,1.63-0.03,3.24-0.08,4.81
				c-0.05,1.58-0.13,3.05-0.24,4.42c1.05-0.95,2.33-2.12,3.83-3.51c1.5-1.39,3.46-3.09,5.88-5.09l15.23-12.86h23.67l-20.2,15.15
				c-1.74,1.32-3.27,2.47-4.62,3.47c-1.34,1-2.54,1.87-3.59,2.6c-1.05,0.74-2.01,1.39-2.88,1.97c-0.87,0.58-1.72,1.13-2.56,1.66
				c1.53,1.05,3.37,2.37,5.52,3.95c2.16,1.58,4.94,3.76,8.37,6.55L920,479.61z"/>
			<path d="M991.97,479.61h-24.7l-15.94-13.89c-2.74-2.37-4.83-4.21-6.27-5.52c-1.45-1.31-2.62-2.42-3.51-3.31
				c0.05,1.21,0.1,2.46,0.16,3.75c0.05,1.29,0.08,2.56,0.08,3.83v15.15h-16.41v-52.8h16.41v12.23c0,1.63-0.03,3.24-0.08,4.81
				c-0.05,1.58-0.13,3.05-0.24,4.42c1.05-0.95,2.33-2.12,3.83-3.51c1.5-1.39,3.46-3.09,5.88-5.09l15.23-12.86h23.67l-20.2,15.15
				c-1.74,1.32-3.27,2.47-4.62,3.47c-1.34,1-2.54,1.87-3.59,2.6c-1.05,0.74-2.01,1.39-2.88,1.97c-0.87,0.58-1.72,1.13-2.56,1.66
				c1.53,1.05,3.37,2.37,5.52,3.95c2.16,1.58,4.94,3.76,8.37,6.55L991.97,479.61z"/>
			<path d="M1019.67,479.61l9.86-13.57h13.26c1.58,0,3.22,0,4.93,0c1.71,0,3.2,0.05,4.46,0.16c-0.74-0.95-1.59-2.14-2.56-3.59
				c-0.97-1.45-1.91-2.8-2.8-4.06l-9.47-13.97l-24.78,35.04h-19.33l33.85-47.74c1.1-1.53,2.5-2.89,4.18-4.1
				c1.68-1.21,3.81-1.81,6.39-1.81c2.47,0,4.54,0.57,6.19,1.7c1.66,1.13,3.06,2.54,4.22,4.22l32.99,47.74H1019.67z"/>
			<path d="M1135.6,426.81l-10.58,13.73h-18.86v39.06h-16.34v-39.06h-24.78l10.57-13.73H1135.6z"/>
			<path d="M1139.7,472.9c0-2.47,0.85-4.38,2.56-5.72c1.71-1.34,3.83-2.01,6.35-2.01c2.47,0,4.56,0.67,6.27,2.01
				c1.71,1.34,2.57,3.25,2.57,5.72c0,2.42-0.86,4.29-2.57,5.6c-1.71,1.31-3.8,1.97-6.27,1.97c-2.53,0-4.64-0.66-6.35-1.97
				S1139.7,475.32,1139.7,472.9z M1156.59,426.81v17.6l-1.82,15.55h-12.78l-1.74-15.55v-17.6H1156.59z"/>
		</g>
		<g>
			<path d="M834.58,532.62c0,2.95-0.58,5.62-1.74,8.01c-1.16,2.4-2.85,4.43-5.09,6.12c-2.24,1.68-4.96,3-8.17,3.95
				c-3.21,0.95-6.87,1.42-10.97,1.42h-27.62v13.5h-16.26v-26.99h45.46c2.53,0,4.48-0.55,5.88-1.66c1.39-1.1,2.09-2.58,2.09-4.42
				s-0.7-3.3-2.09-4.38c-1.39-1.08-3.35-1.62-5.88-1.62h-45.46l10.81-13.73h33.15c4.1,0,7.76,0.49,10.97,1.46
				c3.21,0.97,5.92,2.33,8.13,4.06c2.21,1.74,3.89,3.81,5.05,6.23C834,526.99,834.58,529.68,834.58,532.62z"/>
			<path d="M852.73,565.61l9.86-13.57h13.26c1.58,0,3.22,0,4.93,0c1.71,0,3.2,0.05,4.46,0.16c-0.74-0.95-1.59-2.14-2.56-3.59
				c-0.97-1.45-1.91-2.8-2.8-4.06l-9.47-13.97l-24.78,35.04h-19.33l33.85-47.74c1.1-1.53,2.5-2.89,4.18-4.1
				c1.68-1.21,3.81-1.81,6.39-1.81c2.47,0,4.54,0.57,6.19,1.7c1.66,1.13,3.06,2.54,4.22,4.22l32.99,47.74H852.73z"/>
			<path d="M973.47,566.48c-1.05,0-2.09-0.17-3.12-0.51c-1.03-0.34-2.17-1.12-3.43-2.33l-32.36-29.04v31.01h-14.84v-43.8
				c0-1.74,0.25-3.24,0.75-4.5c0.5-1.26,1.16-2.29,1.97-3.08c0.81-0.79,1.76-1.37,2.84-1.74c1.08-0.37,2.2-0.55,3.35-0.55
				c1,0,2.01,0.17,3.04,0.51c1.03,0.34,2.2,1.12,3.51,2.33l32.36,29.04v-31.01h14.92v43.72c0,1.74-0.25,3.24-0.75,4.5
				c-0.5,1.26-1.16,2.3-1.97,3.12c-0.82,0.82-1.78,1.41-2.88,1.78C975.76,566.29,974.62,566.48,973.47,566.48z"/>
			<path d="M1059.25,538.7c0,3.84-0.8,7.41-2.41,10.69c-1.61,3.29-3.81,6.13-6.63,8.52c-2.81,2.39-6.17,4.28-10.06,5.64
				c-3.89,1.37-8.13,2.05-12.71,2.05h-35.35V532.7h16.41v19.33h18.94c2.26,0,4.35-0.3,6.27-0.91c1.92-0.6,3.56-1.46,4.93-2.56
				c1.37-1.1,2.45-2.43,3.24-3.99c0.79-1.55,1.18-3.28,1.18-5.17c0-1.84-0.39-3.55-1.18-5.13c-0.79-1.58-1.89-2.93-3.31-4.06
				c-1.42-1.13-3.08-2.03-4.97-2.68c-1.89-0.66-3.95-0.99-6.16-0.99h-35.35l10.42-13.73h24.94c4.63,0,8.89,0.63,12.78,1.89
				c3.89,1.26,7.25,3.04,10.06,5.33c2.81,2.29,5.01,5.02,6.59,8.21C1058.46,531.43,1059.25,534.91,1059.25,538.7z"/>
			<path d="M1082.53,565.61l9.86-13.57h13.26c1.58,0,3.22,0,4.93,0c1.71,0,3.2,0.05,4.46,0.16c-0.74-0.95-1.59-2.14-2.56-3.59
				c-0.97-1.45-1.91-2.8-2.8-4.06l-9.47-13.97l-24.78,35.04h-19.33l33.85-47.74c1.1-1.53,2.5-2.89,4.18-4.1
				c1.68-1.21,3.81-1.81,6.39-1.81c2.47,0,4.54,0.57,6.19,1.7c1.66,1.13,3.06,2.54,4.22,4.22l32.99,47.74H1082.53z"/>
		</g>
		<g>
			<polygon points="738.79,636.38 732.32,654.05 726.64,654.05 726.64,636.38 			"/>
			<path d="M780.44,651.61H764.1v-52.79h16.34V651.61z"/>
			<path d="M857.22,651.61h-24.7l-15.94-13.89c-2.74-2.37-4.83-4.21-6.27-5.52c-1.45-1.31-2.62-2.42-3.51-3.31
				c0.05,1.21,0.1,2.46,0.16,3.75c0.05,1.29,0.08,2.56,0.08,3.83v15.15h-16.41v-52.79h16.41v12.23c0,1.63-0.03,3.24-0.08,4.81
				c-0.05,1.58-0.13,3.05-0.24,4.42c1.05-0.95,2.33-2.12,3.83-3.51c1.5-1.39,3.46-3.09,5.88-5.09l15.23-12.86h23.67l-20.2,15.15
				c-1.74,1.32-3.27,2.47-4.62,3.47c-1.34,1-2.54,1.87-3.59,2.6c-1.05,0.74-2.01,1.39-2.88,1.97c-0.87,0.58-1.72,1.13-2.56,1.66
				c1.53,1.05,3.37,2.37,5.52,3.95c2.16,1.58,4.94,3.76,8.37,6.55L857.22,651.61z"/>
			<path d="M884.92,651.61l9.86-13.57h13.26c1.58,0,3.22,0,4.93,0c1.71,0,3.2,0.05,4.46,0.16c-0.74-0.95-1.59-2.14-2.56-3.59
				c-0.97-1.45-1.91-2.8-2.8-4.06l-9.47-13.97l-24.78,35.04h-19.33l33.85-47.74c1.1-1.53,2.5-2.89,4.18-4.1
				c1.68-1.21,3.81-1.81,6.39-1.81c2.47,0,4.54,0.57,6.19,1.7c1.66,1.13,3.06,2.54,4.22,4.22l32.99,47.74H884.92z"/>
			<path d="M1011.74,624.46c2.31,0.68,4.27,2.03,5.88,4.03c1.6,2,2.41,4.58,2.41,7.73c0,2.21-0.34,4.25-1.03,6.12
				c-0.68,1.87-1.84,3.49-3.47,4.85c-1.63,1.37-3.83,2.45-6.59,3.24c-2.76,0.79-6.22,1.18-10.38,1.18h-46.4v-32.12h46.72
				c1.21,0,2.27-0.25,3.2-0.75c0.92-0.5,1.38-1.43,1.38-2.8c0-1.31-0.47-2.21-1.42-2.68c-0.95-0.47-2-0.71-3.16-0.71h-46.72
				l11.05-13.73h34.96c3.16,0,6.01,0.3,8.56,0.91c2.55,0.61,4.73,1.53,6.55,2.76c1.81,1.24,3.21,2.76,4.18,4.58
				c0.97,1.82,1.46,3.93,1.46,6.35c0,1.58-0.21,2.97-0.63,4.18c-0.42,1.21-0.96,2.28-1.62,3.2c-0.66,0.92-1.42,1.68-2.29,2.29
				C1013.52,623.69,1012.64,624.15,1011.74,624.46z M968.58,630.77v7.26h30.07c1.79,0,3.08-0.32,3.87-0.95
				c0.79-0.63,1.18-1.55,1.18-2.76c0-1.16-0.39-2.04-1.18-2.64c-0.79-0.6-2.08-0.91-3.87-0.91H968.58z"/>
			<path d="M1044.81,651.61h-16.34V614.6h16.34V651.61z M1029.97,603.86c0-1.89,0.66-3.35,1.97-4.38c1.31-1.03,2.89-1.54,4.74-1.54
				c1.89,0,3.5,0.51,4.81,1.54c1.31,1.03,1.97,2.49,1.97,4.38c0,1.84-0.66,3.26-1.97,4.26c-1.32,1-2.92,1.5-4.81,1.5
				c-1.84,0-3.42-0.5-4.74-1.5C1030.63,607.13,1029.97,605.71,1029.97,603.86z"/>
			<path d="M1112.2,638.03l-10.58,13.57h-46.64v-52.79h16.34v39.22H1112.2z"/>
			<path d="M1134.22,651.61h-16.34V614.6h16.34V651.61z M1119.38,603.86c0-1.89,0.66-3.35,1.97-4.38c1.31-1.03,2.89-1.54,4.74-1.54
				c1.89,0,3.5,0.51,4.81,1.54c1.31,1.03,1.97,2.49,1.97,4.38c0,1.84-0.66,3.26-1.97,4.26c-1.32,1-2.92,1.5-4.81,1.5
				c-1.84,0-3.42-0.5-4.74-1.5C1120.04,607.13,1119.38,605.71,1119.38,603.86z"/>
			<path d="M1219.29,651.61h-21.86l-11.76-13.97h-25.1v13.97h-16.34v-26.99h45.93c2.53,0,4.66-0.53,6.39-1.58
				c1.74-1.05,2.6-2.5,2.6-4.34c0-2.05-0.79-3.59-2.37-4.62c-1.58-1.03-3.79-1.54-6.63-1.54h-45.93l10.65-13.73h33.93
				c3,0,6.1,0.28,9.31,0.83c3.21,0.55,6.13,1.54,8.76,2.96c2.63,1.42,4.8,3.34,6.51,5.76c1.71,2.42,2.56,5.52,2.56,9.31
				c0,2.05-0.32,4-0.95,5.84c-0.63,1.84-1.54,3.5-2.72,4.97c-1.18,1.47-2.63,2.72-4.34,3.75c-1.71,1.03-3.64,1.75-5.8,2.17
				c0.89,0.68,1.89,1.55,3,2.6c1.11,1.05,2.58,2.5,4.42,4.34L1219.29,651.61z"/>
			<path d="M723.81,638.03h-2.63c-2.21,0-4.26-0.3-6.16-0.91c-1.89-0.6-3.54-1.46-4.93-2.56c-1.4-1.1-2.47-2.43-3.24-3.99
				c-0.76-1.55-1.14-3.28-1.14-5.17c0-1.89,0.39-3.63,1.18-5.21c0.79-1.58,1.87-2.93,3.24-4.06c1.37-1.13,3-2.01,4.89-2.64
				c1.89-0.63,3.95-0.95,6.16-0.95h26.52l10.5-13.73h-37.01c-4.58,0-8.81,0.62-12.71,1.85c-3.89,1.24-7.25,3-10.06,5.29
				c-2.82,2.29-5.02,5.02-6.63,8.21c-1.61,3.18-2.41,6.7-2.41,10.54c0,3.84,0.8,7.41,2.41,10.69c1.6,3.29,3.81,6.13,6.63,8.52
				c2.81,2.39,6.17,4.28,10.06,5.64c3.89,1.37,8.13,2.05,12.71,2.05h2.63V638.03z"/>
			<polygon points="736.24,651.61 747.69,651.61 758.19,638.03 741.21,638.03 			"/>
		</g>
	</g>
	<g class="st0">
		<g>
			<path class="st1" d="M931.89,984.78h-27.85c-0.83,0-1.51,0.67-1.51,1.51v0.39h18.56c5.41,0,9.8,4.47,9.8,9.99
				c0,5.52-4.39,9.99-9.8,9.99h-8.07v8.94l-7.37-2.69v-13.57h15.54c1.48,0,2.68-1.22,2.68-2.73c0-1.51-1.2-2.73-2.68-2.73h-18.66
				v22.16c0,0.83,0.67,1.51,1.51,1.51h27.85c0.83,0,1.51-0.67,1.51-1.51v-29.75C933.4,985.46,932.72,984.78,931.89,984.78"/>
			<path class="st2" d="M988.85,996.03L988.85,996.03c0-5.17-4.36-9.35-9.75-9.35h-16.04v6.74h16.13c1.47,0,2.66,1.14,2.66,2.55
				s-1.19,2.55-2.66,2.55h-16.13v0.12v6.13v0.61v7.57l8,2.69v-10.26h8.04h0.09c1.47,0,2.66,1.14,2.66,2.55v4.98l6.99,2.72V1008
				v-0.21h-0.01c-0.05-2.19-0.88-4.21-2.25-5.78C988.01,1000.39,988.85,998.31,988.85,996.03"/>
			<path class="st2" d="M953.34,989.4v7.25c0,1.41-1.14,2.39-2.55,2.39h-5.4c-1.41,0-2.55-0.99-2.55-2.39v-7.25l-6.74-2.69v9.85
				c0,4.92,3.8,8.94,8.62,9.31v9.77l6.74-0.09v-9.68c4.82-0.37,8.62-4.39,8.62-9.31v-9.86L953.34,989.4z"/>
			<polygon class="st1" points="997.83,995.62 1003.36,995.62 1009.63,1007.02 1004.22,1007.23 			"/>
			<path class="st2" d="M1001.33,1009.25c-1.47,0-2.66-1.08-2.66-2.42c0-1.34,1.19-2.42,2.66-2.42h0.25l-3.31-6.02
				c-3.83,1.2-6.59,4.49-6.59,8.38v8.87h9.75h1.03h15.01l-2.69-6.39C1014.77,1009.25,1001.33,1009.25,1001.33,1009.25z"/>
			<path class="st2" d="M1007.71,986.68h-0.95h-15.09l2.69,6.39h13.44c1.47,0,2.66,1.08,2.66,2.42c0,1.34-1.19,2.42-2.66,2.42h-0.03
				v-0.01h-2.08l3.52,6.4c4.67-0.66,8.25-4.32,8.25-8.75l0,0v-8.87H1007.71z"/>
		</g>
		<g>
			<path class="st4" d="M924.44,964.09c0.68,0.2,1.25,0.59,1.72,1.18c0.47,0.59,0.71,1.34,0.71,2.27c0,0.65-0.1,1.24-0.3,1.79
				s-0.54,1.02-1.02,1.42c-0.48,0.4-1.12,0.72-1.93,0.95c-0.81,0.23-1.82,0.35-3.04,0.35h-13.6v-9.41h13.69
				c0.35,0,0.67-0.07,0.94-0.22c0.27-0.15,0.4-0.42,0.4-0.82c0-0.39-0.14-0.65-0.42-0.79s-0.59-0.21-0.93-0.21h-13.69l3.24-4.02
				h10.25c0.93,0,1.76,0.09,2.51,0.27c0.75,0.18,1.39,0.45,1.92,0.81c0.53,0.36,0.94,0.81,1.23,1.34c0.29,0.53,0.43,1.15,0.43,1.86
				c0,0.46-0.06,0.87-0.19,1.23c-0.12,0.35-0.28,0.67-0.47,0.94c-0.19,0.27-0.42,0.49-0.67,0.67
				C924.96,963.86,924.7,963.99,924.44,964.09z M911.79,965.94v2.13h8.81c0.52,0,0.9-0.09,1.13-0.28s0.35-0.46,0.35-0.81
				c0-0.34-0.11-0.6-0.35-0.78c-0.23-0.18-0.61-0.27-1.13-0.27H911.79z"/>
			<path class="st4" d="M949.37,965.29c0,4.67-3.21,7.01-9.64,7.01c-1.87,0-3.47-0.15-4.81-0.44c-1.34-0.29-2.45-0.73-3.32-1.32
				c-0.87-0.59-1.51-1.31-1.92-2.19c-0.41-0.87-0.61-1.89-0.61-3.06v-8.72h4.76v8.72c0,0.57,0.08,1.05,0.23,1.43
				c0.15,0.39,0.44,0.7,0.87,0.94c0.42,0.24,1.02,0.41,1.79,0.51c0.77,0.1,1.77,0.15,3.01,0.15c0.93,0,1.7-0.05,2.31-0.16
				c0.62-0.11,1.11-0.29,1.48-0.53s0.64-0.56,0.8-0.95c0.16-0.38,0.24-0.85,0.24-1.39v-8.72h4.81V965.29z"/>
			<path class="st4" d="M978.4,964.09c0.68,0.2,1.25,0.59,1.72,1.18c0.47,0.59,0.71,1.34,0.71,2.27c0,0.65-0.1,1.24-0.3,1.79
				s-0.54,1.02-1.02,1.42c-0.48,0.4-1.12,0.72-1.93,0.95c-0.81,0.23-1.82,0.35-3.04,0.35h-13.6v-9.41h13.69
				c0.35,0,0.67-0.07,0.94-0.22c0.27-0.15,0.4-0.42,0.4-0.82c0-0.39-0.14-0.65-0.42-0.79c-0.28-0.14-0.59-0.21-0.93-0.21h-13.69
				l3.24-4.02h10.25c0.93,0,1.76,0.09,2.51,0.27c0.75,0.18,1.39,0.45,1.92,0.81c0.53,0.36,0.94,0.81,1.23,1.34
				c0.29,0.53,0.43,1.15,0.43,1.86c0,0.46-0.06,0.87-0.19,1.23c-0.12,0.35-0.28,0.67-0.47,0.94c-0.19,0.27-0.42,0.49-0.67,0.67
				C978.92,963.86,978.66,963.99,978.4,964.09z M965.75,965.94v2.13h8.81c0.52,0,0.9-0.09,1.13-0.28s0.35-0.46,0.35-0.81
				c0-0.34-0.11-0.6-0.35-0.78c-0.23-0.18-0.61-0.27-1.13-0.27H965.75z"/>
			<path class="st4" d="M988.09,972.04h-4.79v-15.47h4.79V972.04z M983.74,953.42c0-0.56,0.19-0.98,0.58-1.28
				c0.39-0.3,0.85-0.45,1.39-0.45c0.56,0,1.02,0.15,1.41,0.45c0.38,0.3,0.58,0.73,0.58,1.28c0,0.54-0.19,0.96-0.58,1.25
				c-0.39,0.29-0.86,0.44-1.41,0.44c-0.54,0-1-0.15-1.39-0.44C983.93,954.38,983.74,953.96,983.74,953.42z"/>
			<path class="st4" d="M1013.02,972.04h-6.41l-3.45-4.09h-7.36v4.09h-4.79v-7.91h13.46c0.74,0,1.36-0.15,1.87-0.46
				c0.51-0.31,0.76-0.73,0.76-1.27c0-0.6-0.23-1.05-0.69-1.35c-0.46-0.3-1.11-0.45-1.94-0.45h-13.46l3.12-4.02h9.95
				c0.88,0,1.79,0.08,2.73,0.24c0.94,0.16,1.8,0.45,2.57,0.87c0.77,0.42,1.41,0.98,1.91,1.69c0.5,0.71,0.75,1.62,0.75,2.73
				c0,0.6-0.09,1.17-0.28,1.71c-0.19,0.54-0.45,1.03-0.8,1.46c-0.35,0.43-0.77,0.8-1.27,1.1c-0.5,0.3-1.07,0.51-1.7,0.64
				c0.26,0.2,0.56,0.46,0.88,0.76c0.32,0.31,0.75,0.73,1.29,1.27L1013.02,972.04z"/>
		</g>
		<g>
			<path class="st4" d="M867.05,1032.51c0.34,0.6,0.64,1.13,0.89,1.58c0.25,0.45,0.48,0.86,0.67,1.21c0.19,0.35,0.36,0.68,0.51,0.97
				c0.14,0.29,0.29,0.58,0.43,0.86c0.12-0.28,0.26-0.56,0.4-0.85c0.15-0.28,0.32-0.61,0.51-0.97c0.19-0.36,0.42-0.77,0.67-1.21
				s0.55-0.97,0.89-1.57l2.48-4.39c0.28-0.49,0.63-0.89,1.05-1.19c0.42-0.3,0.95-0.45,1.58-0.45c0.6,0,1.14,0.17,1.63,0.52
				c0.49,0.35,0.84,0.88,1.05,1.61l3.91,13.6h-4.77l-1.46-5.39c-0.25-0.88-0.46-1.65-0.62-2.31c-0.17-0.66-0.32-1.31-0.44-1.94
				c-0.26,0.54-0.56,1.14-0.88,1.79c-0.32,0.66-0.75,1.49-1.27,2.49l-2.08,3.89c-0.2,0.38-0.4,0.69-0.61,0.91
				c-0.21,0.22-0.42,0.4-0.64,0.52c-0.22,0.12-0.45,0.21-0.69,0.24c-0.25,0.04-0.52,0.06-0.81,0.06c-0.29,0-0.56-0.02-0.81-0.06
				c-0.25-0.04-0.48-0.12-0.69-0.24c-0.22-0.12-0.43-0.3-0.64-0.52c-0.21-0.22-0.41-0.53-0.61-0.91l-2.08-3.91
				c-0.28-0.53-0.53-0.99-0.74-1.41c-0.21-0.42-0.41-0.79-0.59-1.12c-0.18-0.33-0.33-0.64-0.46-0.91c-0.13-0.28-0.26-0.55-0.38-0.81
				c-0.12,0.62-0.27,1.26-0.44,1.93c-0.17,0.67-0.37,1.45-0.6,2.32l-1.46,5.39h-4.7l4-13.6c0.22-0.72,0.57-1.26,1.06-1.61
				c0.49-0.35,1.04-0.52,1.64-0.52c0.62,0,1.14,0.15,1.56,0.44c0.42,0.29,0.78,0.69,1.05,1.2L867.05,1032.51z"/>
			<path class="st4" d="M892.03,1042.22l2.89-3.98h3.88c0.46,0,0.94,0,1.45,0s0.94,0.02,1.31,0.05c-0.22-0.28-0.47-0.63-0.75-1.05
				c-0.28-0.42-0.56-0.82-0.82-1.19l-2.78-4.09l-7.26,10.27h-5.67l9.92-13.99c0.32-0.45,0.73-0.85,1.23-1.2
				c0.49-0.36,1.12-0.53,1.87-0.53c0.72,0,1.33,0.17,1.81,0.5c0.49,0.33,0.9,0.75,1.24,1.24l9.67,13.99H892.03z"/>
			<path class="st4" d="M933.68,1042.22h-6.41l-3.45-4.09h-7.36v4.09h-4.79v-7.91h13.46c0.74,0,1.36-0.15,1.87-0.46
				c0.51-0.31,0.76-0.73,0.76-1.27c0-0.6-0.23-1.05-0.69-1.35c-0.46-0.3-1.11-0.45-1.94-0.45h-13.46l3.12-4.02h9.95
				c0.88,0,1.79,0.08,2.73,0.24c0.94,0.16,1.8,0.45,2.57,0.87c0.77,0.42,1.41,0.98,1.91,1.69s0.75,1.62,0.75,2.73
				c0,0.6-0.09,1.17-0.28,1.71c-0.18,0.54-0.45,1.03-0.8,1.46c-0.35,0.43-0.77,0.8-1.27,1.1c-0.5,0.3-1.07,0.51-1.7,0.64
				c0.26,0.2,0.56,0.46,0.88,0.76c0.32,0.31,0.75,0.73,1.29,1.27L933.68,1042.22z"/>
			<path class="st4" d="M954.91,1042.22h-7.24l-4.67-4.07c-0.8-0.69-1.42-1.23-1.84-1.62c-0.43-0.39-0.77-0.71-1.03-0.97
				c0.02,0.36,0.03,0.72,0.05,1.1c0.02,0.38,0.02,0.75,0.02,1.12v4.44h-4.81v-15.47h4.81v3.59c0,0.48-0.01,0.95-0.02,1.41
				c-0.02,0.46-0.04,0.89-0.07,1.29c0.31-0.28,0.68-0.62,1.12-1.03c0.44-0.41,1.01-0.91,1.72-1.49l4.46-3.77h6.94l-5.92,4.44
				c-0.51,0.38-0.96,0.72-1.35,1.02c-0.39,0.29-0.74,0.55-1.05,0.76c-0.31,0.22-0.59,0.41-0.84,0.58c-0.25,0.17-0.51,0.33-0.75,0.49
				c0.45,0.31,0.99,0.69,1.62,1.16c0.63,0.46,1.45,1.1,2.45,1.92L954.91,1042.22z"/>
			<path class="st4" d="M963.03,1042.22l2.89-3.98h3.88c0.46,0,0.94,0,1.45,0c0.5,0,0.94,0.02,1.31,0.05
				c-0.22-0.28-0.47-0.63-0.75-1.05c-0.28-0.42-0.56-0.82-0.82-1.19l-2.78-4.09l-7.26,10.27h-5.67l9.92-13.99
				c0.32-0.45,0.73-0.85,1.23-1.2c0.49-0.36,1.12-0.53,1.87-0.53c0.72,0,1.33,0.17,1.81,0.5c0.49,0.33,0.9,0.75,1.24,1.24
				l9.67,13.99H963.03z"/>
			<path class="st4" d="M997.07,1032.93c1.9,0,3.34,0.35,4.33,1.05c0.99,0.7,1.48,1.76,1.48,3.18c0,0.79-0.12,1.5-0.37,2.13
				c-0.25,0.63-0.64,1.17-1.18,1.6c-0.54,0.43-1.23,0.76-2.07,1c-0.84,0.23-1.85,0.35-3.02,0.35h-14.41l3.08-3.98h11.7
				c0.57,0,0.99-0.09,1.25-0.27c0.26-0.18,0.39-0.47,0.39-0.87s-0.13-0.69-0.39-0.85c-0.26-0.17-0.68-0.25-1.25-0.25h-8.42
				c-1,0-1.87-0.11-2.59-0.33c-0.73-0.21-1.33-0.52-1.81-0.9c-0.48-0.38-0.83-0.85-1.06-1.4s-0.35-1.15-0.35-1.82
				c0-0.72,0.13-1.38,0.38-1.98c0.25-0.59,0.65-1.1,1.18-1.52c0.53-0.42,1.22-0.74,2.06-0.97c0.84-0.23,1.85-0.35,3.02-0.35h13.44
				l-3.08,4.02h-10.73c-0.56,0-0.97,0.08-1.24,0.23c-0.27,0.15-0.4,0.43-0.4,0.83c0,0.4,0.14,0.68,0.4,0.84
				c0.27,0.16,0.68,0.24,1.24,0.24H997.07z"/>
			<path class="st4" d="M1009.87,1042.22h-4.79v-15.47h4.79V1042.22z"/>
			<path class="st4" d="M1032.53,1034.34c0,1.13-0.24,2.17-0.71,3.13c-0.47,0.96-1.12,1.8-1.94,2.5c-0.82,0.7-1.81,1.25-2.95,1.65
				c-1.14,0.4-2.38,0.6-3.72,0.6h-10.36v-9.64h4.81v5.67h5.55c0.66,0,1.28-0.09,1.84-0.27c0.56-0.18,1.05-0.43,1.45-0.75
				c0.4-0.32,0.72-0.71,0.95-1.17c0.23-0.45,0.35-0.96,0.35-1.52c0-0.54-0.11-1.04-0.35-1.5c-0.23-0.46-0.55-0.86-0.97-1.19
				c-0.41-0.33-0.9-0.59-1.46-0.79c-0.55-0.19-1.16-0.29-1.8-0.29h-10.36l3.05-4.02h7.31c1.36,0,2.61,0.19,3.75,0.56
				c1.14,0.37,2.12,0.89,2.95,1.56c0.82,0.67,1.47,1.47,1.93,2.41C1032.3,1032.21,1032.53,1033.23,1032.53,1034.34z"/>
			<path class="st4" d="M1039.82,1042.22h-4.79v-15.47h4.79V1042.22z"/>
			<path class="st4" d="M1064.75,1042.22h-6.41l-3.45-4.09h-7.36v4.09h-4.79v-7.91h13.46c0.74,0,1.36-0.15,1.87-0.46
				c0.51-0.31,0.76-0.73,0.76-1.27c0-0.6-0.23-1.05-0.69-1.35c-0.46-0.3-1.11-0.45-1.94-0.45h-13.46l3.12-4.02h9.95
				c0.88,0,1.79,0.08,2.73,0.24c0.94,0.16,1.8,0.45,2.57,0.87c0.77,0.42,1.41,0.98,1.91,1.69s0.75,1.62,0.75,2.73
				c0,0.6-0.09,1.17-0.28,1.71c-0.18,0.54-0.45,1.03-0.8,1.46c-0.35,0.43-0.77,0.8-1.27,1.1c-0.5,0.3-1.07,0.51-1.7,0.64
				c0.26,0.2,0.56,0.46,0.88,0.76c0.32,0.31,0.75,0.73,1.29,1.27L1064.75,1042.22z"/>
		</g>
		<g>
			<path class="st2" d="M1025.03,989.35c-0.02,1.5-1.21,2.66-2.74,2.65c-1.52-0.02-2.71-1.21-2.7-2.7c0.02-1.47,1.24-2.63,2.75-2.61
				C1023.89,986.69,1025.05,987.88,1025.03,989.35z M1020.28,989.3c-0.01,1.17,0.85,2.12,2.04,2.13c1.16,0.01,2.03-0.91,2.04-2.07
				c0.01-1.18-0.83-2.14-2.01-2.15C1021.17,987.19,1020.29,988.14,1020.28,989.3z M1021.89,990.7l-0.61-0.01l0.03-2.64
				c0.24-0.05,0.58-0.07,1.02-0.07c0.5,0,0.72,0.09,0.92,0.21c0.15,0.11,0.26,0.33,0.25,0.58c0,0.29-0.23,0.51-0.55,0.61l0,0.03
				c0.26,0.1,0.4,0.29,0.48,0.65c0.07,0.4,0.12,0.56,0.19,0.66l-0.66-0.01c-0.08-0.1-0.12-0.34-0.2-0.65
				c-0.05-0.29-0.2-0.42-0.54-0.43l-0.29,0L1021.89,990.7L1021.89,990.7z M1021.92,989.2l0.29,0c0.34,0,0.61-0.11,0.62-0.38
				c0-0.24-0.17-0.4-0.56-0.41c-0.16,0-0.27,0.01-0.34,0.03L1021.92,989.2z"/>
		</g>
	</g>
</g>
</svg>
